<?xml version="1.0" standalone="no"?><!DOCTYPE svg PUBLIC "-//W3C//DTD SVG 1.1//EN" "http://www.w3.org/Graphics/SVG/1.1/DTD/svg11.dtd"><svg t="1665147646017" class="icon" viewBox="0 0 1024 1024" version="1.1" xmlns="http://www.w3.org/2000/svg" p-id="21895" xmlns:xlink="http://www.w3.org/1999/xlink" width="200" height="200"><path d="M657.408 567.808c89.088-49.152 149.504-144.384 149.504-253.952 0-160.256-130.048-289.792-289.792-289.792S227.328 154.112 227.328 314.368c0 109.056 60.416 204.288 149.504 253.952-187.904 59.392-323.584 235.008-323.584 442.368h57.856c0-224.256 181.76-406.016 406.016-406.016s406.016 181.76 406.016 406.016h57.856c0-207.872-135.68-383.488-323.584-442.88zM285.184 314.368C285.184 185.856 389.12 81.92 517.12 81.92s231.936 103.936 231.936 231.936-103.936 232.448-231.936 232.448-231.936-103.936-231.936-231.936z" p-id="21896"></path></svg>